# xmcd CD database file
#
# Track frame offsets:
#	150
#	13400
#	35317
#	50920
#	67506
#	76208
#	91952
#	105445
#	120584
#	134638
#	152728
#	166698
#	183805
#
# Disc length: 2729 seconds
#
# Revision: 1
# Processed by: cddbd v1.5.2PL0 Copyright (c) Steve Scherf et al.
# Submitted via: CDex 1.70beta2
#
DISCID=9a0aa70d
DTITLE=Horst Chmela - Mir san a Weltpartie
DYEAR=2007
DGENRE=Folklore
TTITLE0=Tepperter Bua
TTITLE1=Mamma i bitt di' schau owa
TTITLE2=Zum Raunz'n is ka Grund
TTITLE3=Das schönste beim Altwerd'n
TTITLE4=Mir san a Weltpartie
TTITLE5=Ana hat immer das Bummerl
TTITLE6=A klana Schmetterling
TTITLE7=Tua net wana mei' Klana
TTITLE8=Heut lass ma's Rennan
TTITLE9=Madl mei' Madl
TTITLE10=Hallodrimarsch
TTITLE11=Der alte Wirt
TTITLE12=Hab' a bissl a Geduld mit mir
EXTD=YEAR: 2007
EXTT0=
EXTT1=
EXTT2=
EXTT3=
EXTT4=
EXTT5=
EXTT6=
EXTT7=
EXTT8=
EXTT9=
EXTT10=
EXTT11=
EXTT12=
PLAYORDER=
